<svg id="visual" viewBox="0 0 900 600" width="900" height="600" xmlns="http://www.w3.org/2000/svg" xmlns:xlink="http://www.w3.org/1999/xlink" version="1.1"><rect x="0" y="0" width="900" height="600" fill="#fff"></rect><defs><linearGradient id="grad1_0" x1="33.3%" y1="0%" x2="100%" y2="100%"><stop offset="20%" stop-color="#ffffff" stop-opacity="1"></stop><stop offset="80%" stop-color="#ffffff" stop-opacity="1"></stop></linearGradient></defs><defs><linearGradient id="grad2_0" x1="0%" y1="0%" x2="66.7%" y2="100%"><stop offset="20%" stop-color="#ffffff" stop-opacity="1"></stop><stop offset="80%" stop-color="#ffffff" stop-opacity="1"></stop></linearGradient></defs><g transform="translate(900, 0)"><path d="M0 486.7C-47.5 442.8 -94.9 398.9 -158.4 382.5C-221.9 366 -301.5 377 -344.2 344.2C-386.8 311.3 -392.6 234.6 -410.2 169.9C-427.8 105.2 -457.3 52.6 -486.7 0L0 0Z" fill="#F8E7CB"></path></g><g transform="translate(0, 600)"><path d="M0 -486.7C55.1 -453.8 110.3 -420.8 163.8 -395.4C217.3 -370.1 269.1 -352.3 320.3 -320.3C371.5 -288.3 422.1 -242 449.7 -186.3C477.3 -130.5 482 -65.3 486.7 0L0 0Z" fill="#F8E7CB"></path></g></svg>