<svg width="804" height="631" viewBox="0 0 804 631" fill="none" xmlns="http://www.w3.org/2000/svg">
<g clip-path="url(#clip0_7708_70)">
<path d="M548.886 149.839H545.419V54.929C545.419 40.3609 539.632 26.3895 529.331 16.0883C519.029 5.78715 505.058 0 490.49 0H289.413C274.845 0 260.874 5.78715 250.572 16.0883C240.271 26.3895 234.484 40.3609 234.484 54.929V575.607C234.484 590.175 240.271 604.147 250.572 614.448C260.874 624.749 274.845 630.536 289.413 630.536H490.49C505.058 630.536 519.029 624.749 529.331 614.448C539.632 604.147 545.419 590.175 545.419 575.607V217.396H548.885L548.886 149.839Z" fill="#090814"/>
<path d="M492.714 14.291H466.467C467.674 17.2503 468.135 20.461 467.809 23.6403C467.483 26.8196 466.38 29.8699 464.597 32.5226C462.815 35.1752 460.407 37.3487 457.586 38.8516C454.766 40.3546 451.619 41.1408 448.423 41.141H333.223C330.027 41.141 326.88 40.3549 324.059 38.852C321.239 37.3491 318.831 35.1756 317.048 32.523C315.265 29.8703 314.162 26.8199 313.836 23.6405C313.51 20.4611 313.971 17.2503 315.178 14.291H290.664C279.784 14.291 269.35 18.613 261.657 26.3061C253.964 33.9992 249.642 44.4333 249.642 55.313V575.227C249.642 586.107 253.964 596.541 261.657 604.234C269.35 611.927 279.784 616.249 290.664 616.249H492.706C498.093 616.249 503.427 615.188 508.404 613.126C513.381 611.065 517.904 608.043 521.713 604.234C525.522 600.425 528.544 595.902 530.605 590.925C532.667 585.948 533.728 580.614 533.728 575.227V55.313C533.728 44.4349 529.407 34.0021 521.716 26.3093C514.025 18.6164 503.592 14.2934 492.714 14.291Z" fill="white"/>
<path d="M486.352 434.731H297.018C291.944 434.725 287.079 432.707 283.491 429.119C279.903 425.531 277.885 420.666 277.879 415.592V164.887C277.885 159.813 279.903 154.948 283.491 151.36C287.079 147.772 291.944 145.754 297.018 145.748H486.352C491.426 145.754 496.291 147.772 499.879 151.36C503.467 154.948 505.485 159.813 505.491 164.887V415.587C505.487 420.662 503.469 425.528 499.881 429.117C496.293 432.707 491.427 434.725 486.352 434.731Z" fill="#E6E6E6"/>
<path d="M473.042 418.78H310.327C305.822 418.775 301.503 416.983 298.317 413.797C295.131 410.611 293.339 406.292 293.334 401.787V178.697C293.339 174.192 295.131 169.873 298.317 166.687C301.502 163.501 305.822 161.709 310.327 161.704H473.042C477.549 161.707 481.87 163.498 485.057 166.684C488.244 169.87 490.037 174.191 490.042 178.697V401.787C490.037 406.294 488.244 410.614 485.057 413.8C481.87 416.986 477.549 418.777 473.042 418.78Z" fill="white"/>
<path d="M456.811 204.099H326.558C325.431 204.099 324.35 203.651 323.553 202.854C322.756 202.057 322.308 200.976 322.308 199.849C322.308 198.722 322.756 197.641 323.553 196.844C324.35 196.047 325.431 195.599 326.558 195.599H456.811C457.938 195.599 459.019 196.047 459.816 196.844C460.613 197.641 461.061 198.722 461.061 199.849C461.061 200.976 460.613 202.057 459.816 202.854C459.019 203.651 457.938 204.099 456.811 204.099Z" fill="#E4E4E4"/>
<path d="M456.811 220.885H326.558C325.431 220.885 324.35 220.437 323.553 219.64C322.756 218.843 322.308 217.762 322.308 216.635C322.308 215.508 322.756 214.427 323.553 213.63C324.35 212.833 325.431 212.385 326.558 212.385H456.811C457.938 212.385 459.019 212.833 459.816 213.63C460.613 214.427 461.061 215.508 461.061 216.635C461.061 217.762 460.613 218.843 459.816 219.64C459.019 220.437 457.938 220.885 456.811 220.885Z" fill="#8A561C"/>
<path d="M383.02 237.671H326.558C325.431 237.671 324.35 237.223 323.553 236.426C322.756 235.629 322.308 234.548 322.308 233.421C322.308 232.294 322.756 231.213 323.553 230.416C324.35 229.619 325.431 229.171 326.558 229.171H383.02C384.147 229.171 385.228 229.619 386.025 230.416C386.822 231.213 387.27 232.294 387.27 233.421C387.27 234.548 386.822 235.629 386.025 236.426C385.228 237.223 384.147 237.671 383.02 237.671Z" fill="#E4E4E4"/>
<path d="M456.811 272.827H326.558C325.431 272.827 324.35 272.379 323.553 271.582C322.756 270.785 322.308 269.704 322.308 268.577C322.308 267.45 322.756 266.369 323.553 265.572C324.35 264.775 325.431 264.327 326.558 264.327H456.811C457.938 264.327 459.019 264.775 459.816 265.572C460.613 266.369 461.061 267.45 461.061 268.577C461.061 269.704 460.613 270.785 459.816 271.582C459.019 272.379 457.938 272.827 456.811 272.827Z" fill="#E4E4E4"/>
<path d="M456.811 289.611H326.558C325.431 289.611 324.35 289.163 323.553 288.366C322.756 287.569 322.308 286.488 322.308 285.361C322.308 284.234 322.756 283.153 323.553 282.356C324.35 281.559 325.431 281.111 326.558 281.111H456.811C457.938 281.111 459.019 281.559 459.816 282.356C460.613 283.153 461.061 284.234 461.061 285.361C461.061 286.488 460.613 287.569 459.816 288.366C459.019 289.163 457.938 289.611 456.811 289.611Z" fill="#E4E4E4"/>
<path d="M383.02 306.399H326.558C325.431 306.399 324.35 305.951 323.553 305.154C322.756 304.357 322.308 303.276 322.308 302.149C322.308 301.022 322.756 299.941 323.553 299.144C324.35 298.347 325.431 297.899 326.558 297.899H383.02C384.147 297.899 385.228 298.347 386.025 299.144C386.822 299.941 387.27 301.022 387.27 302.149C387.27 303.276 386.822 304.357 386.025 305.154C385.228 305.951 384.147 306.399 383.02 306.399Z" fill="#E4E4E4"/>
<path d="M456.811 341.554H326.558C325.431 341.554 324.35 341.106 323.553 340.309C322.756 339.512 322.308 338.431 322.308 337.304C322.308 336.177 322.756 335.096 323.553 334.299C324.35 333.502 325.431 333.054 326.558 333.054H456.811C457.938 333.054 459.019 333.502 459.816 334.299C460.613 335.096 461.061 336.177 461.061 337.304C461.061 338.431 460.613 339.512 459.816 340.309C459.019 341.106 457.938 341.554 456.811 341.554Z" fill="#8A561C"/>
<path d="M456.811 358.341H326.558C325.431 358.341 324.35 357.893 323.553 357.096C322.756 356.299 322.308 355.218 322.308 354.091C322.308 352.964 322.756 351.883 323.553 351.086C324.35 350.289 325.431 349.841 326.558 349.841H456.811C457.938 349.841 459.019 350.289 459.816 351.086C460.613 351.883 461.061 352.964 461.061 354.091C461.061 355.218 460.613 356.299 459.816 357.096C459.019 357.893 457.938 358.341 456.811 358.341Z" fill="#E4E4E4"/>
<path d="M383.02 375.124H326.558C325.431 375.124 324.35 374.676 323.553 373.879C322.756 373.082 322.308 372.001 322.308 370.874C322.308 369.747 322.756 368.666 323.553 367.869C324.35 367.072 325.431 366.624 326.558 366.624H383.02C384.147 366.624 385.228 367.072 386.025 367.869C386.822 368.666 387.27 369.747 387.27 370.874C387.27 372.001 386.822 373.082 386.025 373.879C385.228 374.676 384.147 375.124 383.02 375.124Z" fill="#E4E4E4"/>
<path d="M320.224 339.811L178.712 218.769H83.64V216.986H179.37L321.383 338.456L320.224 339.811Z" fill="#2F2E41"/>
<path d="M83.64 232.144C91.5189 232.144 97.906 225.757 97.906 217.878C97.906 209.999 91.5189 203.612 83.64 203.612C75.7611 203.612 69.374 209.999 69.374 217.878C69.374 225.757 75.7611 232.144 83.64 232.144Z" fill="#8A561C"/>
<path d="M134.502 265.86H4.24799C3.12082 265.86 2.03981 265.412 1.24278 264.615C0.445753 263.818 -0.00201416 262.737 -0.00201416 261.61C-0.00201416 260.483 0.445753 259.402 1.24278 258.605C2.03981 257.808 3.12082 257.36 4.24799 257.36H134.502C135.629 257.36 136.71 257.808 137.507 258.605C138.304 259.402 138.752 260.483 138.752 261.61C138.752 262.737 138.304 263.818 137.507 264.615C136.71 265.412 135.629 265.86 134.502 265.86Z" fill="#8A561C"/>
<path d="M134.502 282.65H4.24799C3.12082 282.65 2.03981 282.202 1.24278 281.405C0.445753 280.608 -0.00201416 279.527 -0.00201416 278.4C-0.00201416 277.273 0.445753 276.192 1.24278 275.395C2.03981 274.598 3.12082 274.15 4.24799 274.15H134.502C135.629 274.15 136.71 274.598 137.507 275.395C138.304 276.192 138.752 277.273 138.752 278.4C138.752 279.527 138.304 280.608 137.507 281.405C136.71 282.202 135.629 282.65 134.502 282.65Z" fill="#8A561C"/>
<path d="M60.71 299.432H4.24799C3.12082 299.432 2.03981 298.984 1.24278 298.187C0.445753 297.39 -0.00201416 296.309 -0.00201416 295.182C-0.00201416 294.055 0.445753 292.974 1.24278 292.177C2.03981 291.38 3.12082 290.932 4.24799 290.932H60.71C61.8372 290.932 62.9182 291.38 63.7152 292.177C64.5122 292.974 64.96 294.055 64.96 295.182C64.96 296.309 64.5122 297.39 63.7152 298.187C62.9182 298.984 61.8372 299.432 60.71 299.432Z" fill="#8A561C"/>
<path d="M464.308 219.75L606.321 98.28H702.051V100.063H606.98L465.467 221.106L464.308 219.75Z" fill="#2F2E41"/>
<path d="M702.051 113.438C709.93 113.438 716.317 107.051 716.317 99.172C716.317 91.2931 709.93 84.906 702.051 84.906C694.172 84.906 687.785 91.2931 687.785 99.172C687.785 107.051 694.172 113.438 702.051 113.438Z" fill="#8A561C"/>
<path d="M799.049 146.655H668.796C667.669 146.655 666.588 146.207 665.791 145.41C664.994 144.613 664.546 143.532 664.546 142.405C664.546 141.278 664.994 140.197 665.791 139.4C666.588 138.603 667.669 138.155 668.796 138.155H799.049C800.176 138.155 801.257 138.603 802.054 139.4C802.851 140.197 803.299 141.278 803.299 142.405C803.299 143.532 802.851 144.613 802.054 145.41C801.257 146.207 800.176 146.655 799.049 146.655Z" fill="#8A561C"/>
<path d="M799.049 163.44H668.796C667.669 163.44 666.588 162.992 665.791 162.195C664.994 161.398 664.546 160.317 664.546 159.19C664.546 158.063 664.994 156.982 665.791 156.185C666.588 155.388 667.669 154.94 668.796 154.94H799.049C800.176 154.94 801.257 155.388 802.054 156.185C802.851 156.982 803.299 158.063 803.299 159.19C803.299 160.317 802.851 161.398 802.054 162.195C801.257 162.992 800.176 163.44 799.049 163.44Z" fill="#8A561C"/>
<path d="M725.258 180.226H668.796C667.669 180.226 666.588 179.778 665.791 178.981C664.994 178.184 664.546 177.103 664.546 175.976C664.546 174.849 664.994 173.768 665.791 172.971C666.588 172.174 667.669 171.726 668.796 171.726H725.258C726.385 171.726 727.466 172.174 728.263 172.971C729.06 173.768 729.508 174.849 729.508 175.976C729.508 177.103 729.06 178.184 728.263 178.981C727.466 179.778 726.385 180.226 725.258 180.226Z" fill="#8A561C"/>
</g>
<defs>
<clipPath id="clip0_7708_70">
<rect width="803.298" height="630.537" fill="white"/>
</clipPath>
</defs>
</svg>
